<svg xmlns="http://www.w3.org/2000/svg" xmlns:xlink="http://www.w3.org/1999/xlink" width="131.4" height="134.896" viewBox="0 0 131.4 134.896">
  <defs>
    <linearGradient id="linear-gradient" x1="0.499" y1="0.999" x2="0.499" gradientUnits="objectBoundingBox">
      <stop offset="0" stop-color="#b40707"/>
      <stop offset="1" stop-color="#e9e900"/>
    </linearGradient>
    <linearGradient id="linear-gradient-2" x1="0.501" y1="0.001" x2="0.501" y2="1" xlink:href="#linear-gradient"/>
  </defs>
  <g id="Spin" transform="matrix(-0.259, -0.966, 0.966, -0.259, 28.777, 134.896)">
    <path id="Tracé_1" data-name="Tracé 1" d="M128.054,174.2a51.328,51.328,0,0,1,.714-18.619,50.135,50.135,0,0,1,7.509-17.4,48.956,48.956,0,0,1,6.116-7.373,41.133,41.133,0,0,1,16.547-10.261,40.858,40.858,0,0,1,28.609,1.189,41.935,41.935,0,0,1,8.324,4.757c.646.442,1.257.985,1.869,1.461.612.51,1.189,1.053,1.767,1.6l.849.849.408.408.1.1c.272.306.136.136.2.238l.17.2,1.427,1.631a2.176,2.176,0,0,1,.34.442l.374.51.747,1.019.713,1.019a10.606,10.606,0,0,1,.612,1.053c.374.714.782,1.393,1.155,2.106l.951,2.175.238.543c.068.17.136.374.2.578l.374,1.121.374,1.121c.136.373.17.781.272,1.155.17.781.34,1.529.509,2.31.1.781.2,1.563.306,2.31l.068.578.034.578.034,1.155.034,1.155c0,.374-.034.781-.068,1.155-.068.781-.1,1.529-.17,2.311-.136.747-.238,1.529-.374,2.276-.1.747-.34,1.495-.51,2.209-.2.748-.374,1.461-.646,2.174-.238.646-.476,1.291-.714,1.9-.306.645-.612,1.325-.917,1.971-.238.408-.408.85-.646,1.257l-.578.951-.578.951a8.62,8.62,0,0,1-.611.918c-.442.577-.883,1.155-1.359,1.767l-.34.442a4.075,4.075,0,0,1-.373.408l-.748.815-.748.781-.374.408-.17.17-.1.068-.2.17c-.51.442-.986.883-1.529,1.325-.611.442-1.257.884-1.869,1.325-.612.408-1.257.747-1.9,1.121a25.834,25.834,0,0,1-8.087,2.718,24.917,24.917,0,0,1-8.256-.068l-1.019-.17c-.34-.068-.646-.17-.985-.238l-.986-.272-.475-.136-.476-.17c-.611-.238-1.257-.476-1.869-.713-.612-.306-1.189-.578-1.767-.883a26.256,26.256,0,0,1-6.184-4.621l-.17-.17c-.034,0-.17-.17-.136-.136l-.068-.068-.306-.34-.577-.68-.272-.34-.272-.408-.578-.815a13.876,13.876,0,0,1-.985-1.631,10.792,10.792,0,0,1-.816-1.665,19.986,19.986,0,0,1,2.039-19.6c.306-.408.645-.849.951-1.257.34-.374.714-.748,1.053-1.121l.272-.272.068-.068.1-.1.136-.1.544-.476c.2-.17.34-.306.578-.476l.646-.442a15.744,15.744,0,0,1,5.3-2.378,15.327,15.327,0,0,1,5.368-.374,16.851,16.851,0,0,1,4.825,1.325,14.7,14.7,0,0,1,6.49,5.674,11.973,11.973,0,0,1,1.7,6.66,11.178,11.178,0,0,1-.374,2.514,12.933,12.933,0,1,1-19.673-13.557,12.981,12.981,0,0,0-2.548,1.529l-.51.408a6.477,6.477,0,0,0-.51.476l-.509.51-.136.136c-.068.034,0,0-.034.034l-.068.068-.238.272c-.306.34-.612.714-.917,1.054-.272.374-.544.781-.816,1.155a17.883,17.883,0,0,0-2.31,5.266,16.747,16.747,0,0,0-.442,5.98,17.477,17.477,0,0,0,1.665,5.946,10.977,10.977,0,0,0,.747,1.393,8.682,8.682,0,0,0,.883,1.291l.476.611.238.306.306.306.612.646.306.306.068.068c.068.068-.034,0,.034,0l.17.136a22.364,22.364,0,0,0,5.572,3.771c.577.238,1.529.612,2.106.849.34.1.68.238,1.019.34l.408.136.408.1.849.17a6.247,6.247,0,0,0,.849.17l.85.1a21.839,21.839,0,0,0,6.965-.238,21.41,21.41,0,0,0,6.592-2.548c.476-.34,1.053-.612,1.5-.951s.883-.68,1.359-1.019l1.461-1.359.17-.17.1-.1h0l.306-.34.612-.714.612-.714c.1-.1.2-.238.306-.34L199,170.6c.34-.509.713-1.019,1.053-1.529a3.68,3.68,0,0,0,.476-.781l.442-.815.442-.816c.2-.34.306-.713.476-1.053l.714-1.733c.17-.51.34-1.054.509-1.563a11.18,11.18,0,0,0,.476-1.835,17.37,17.37,0,0,0,.34-1.835c.068-.612.136-1.257.238-1.869.034-.645.034-1.257.068-1.9a8.9,8.9,0,0,0,0-.951l-.068-.951-.068-.951-.034-.476-.068-.476c-.1-.612-.2-1.257-.306-1.869-.136-.612-.34-1.223-.476-1.835a9.478,9.478,0,0,0-.272-.917l-.34-.883-.34-.884c-.068-.136-.1-.306-.17-.441l-.2-.442-.849-1.7c-.306-.544-.68-1.087-.986-1.631-.17-.272-.34-.543-.51-.781l-.543-.714-.544-.713-.272-.34a3.772,3.772,0,0,0-.34-.374l-1.495-1.563-.17-.2c.034.034-.17-.2.034.034l-.1-.068-.374-.34-.714-.646c-.51-.408-1.019-.849-1.529-1.223-.544-.374-1.053-.781-1.6-1.155a31.361,31.361,0,0,0-6.966-3.568,34.082,34.082,0,0,0-7.611-1.835,33.038,33.038,0,0,0-15.29,1.869,31.614,31.614,0,0,0-6.8,3.568l-1.529,1.121c-.476.408-1.019.816-1.427,1.189-.441.408-.849.747-1.393,1.291l-.781.782c-.068.034.1-.1,0,0l-.068.1-.17.17-.34.374a40.349,40.349,0,0,0-9.989,20.318,41.348,41.348,0,0,0,.1,14.61,39.029,39.029,0,0,0,4.995,13.081,40.2,40.2,0,0,0,3.975,5.47c.34.374.68.747,1.019,1.155a1.3,1.3,0,0,0,.306.306l.34.34.68.679.34.34.068.068-.034-.034.17.136.645.577c.408.374.816.748,1.257,1.121a51.09,51.09,0,0,0,10.839,7.067,49.843,49.843,0,0,0,11.348,3.873,51.367,51.367,0,0,0,20.76.034,45.767,45.767,0,0,0,18.517-8.834,55.3,55.3,0,0,0,18.008-42.165c-.645-29.051-25.585-53.786-54.635-54.193a55.411,55.411,0,0,0-44.646,89.7A50.655,50.655,0,0,1,128.054,174.2Z" transform="translate(-121.7 -101.38)" fill="url(#linear-gradient)"/>
    <path id="Tracé_2" data-name="Tracé 2" d="M199.613,219.236a48.165,48.165,0,0,1-9.344-.951,44.948,44.948,0,0,1-10.091-3.466,45.464,45.464,0,0,1-9.649-6.286c-.2-.17-.408-.34-.612-.543-.17-.17-.34-.306-.544-.476l-.713-.645-1.291-1.291-1.02-1.121a34.45,34.45,0,0,1-3.363-4.655,33.967,33.967,0,0,1-4.281-11.212,34.924,34.924,0,0,1,4.485-24.769,32.434,32.434,0,0,1,4.043-5.335l.51-.578.17-.17.544-.544c.238-.238.441-.408.713-.68a5.674,5.674,0,0,0,.476-.442c.136-.136.374-.306.578-.476l.51-.408.272-.2c.306-.238.646-.476.985-.714a27.837,27.837,0,0,1,5.64-2.956,29.2,29.2,0,0,1,6.218-1.529,25.47,25.47,0,0,1,3.262-.2c1.053,0,2.14.068,3.194.17a26.106,26.106,0,0,1,6.285,1.529,27.039,27.039,0,0,1,5.742,2.956l.136.1c.136.1.374.272.612.442.2.136.408.306.578.442.408.306.815.646,1.223.985l.951.849,1.461,1.563h0a.465.465,0,0,1,.1.136l.714.951.442.578.034.068a2.27,2.27,0,0,0,.238.374c.136.2.272.442.408.645s.272.408.408.646l.883,1.767.408,1.053.306.815v.034c.034.136.068.306.1.441.068.238.136.476.2.748.068.238.136.476.2.747l.34,1.9.068,1.121.068.883v1.257a5.953,5.953,0,0,1-.034.781l-.238,1.835v.1c-.034.136-.068.272-.1.374a6.5,6.5,0,0,0-.17.781l-.068.34a5.1,5.1,0,0,1-.136.646l-.034.136-.476,1.461-.544,1.325a7.41,7.41,0,0,1-.34.714l-.034.034-1.019,1.835-1.223,1.733c-.034.034-1.427,1.665-1.427,1.665s-.408.374-.578.544c-.238.2-.442.441-.68.646l-1.155.883c-.034.034-.272.17-.442.272-.2.136-.408.238-.578.374a15.828,15.828,0,0,1-4.553,1.767,18.528,18.528,0,0,0,10.6-12.979,20.586,20.586,0,0,0,.51-3.534v-.17a16.956,16.956,0,0,0-.476-4.689,16.767,16.767,0,0,0-2.039-4.995,20,20,0,0,0-8.936-7.849l-.068-.034a21.668,21.668,0,0,0-6.49-1.767c-.714-.068-1.495-.136-2.243-.136a21.675,21.675,0,0,0-12.266,3.84l-.68.476a8.057,8.057,0,0,0-.849.68l-.68.577a4.54,4.54,0,0,0-.713.68l-.578.612c-.272.272-.544.578-.815.883l-.136.17-1.155,1.495-.068.1a25.575,25.575,0,0,0-3.67,7.407,24.59,24.59,0,0,0-1.053,8.7,26.175,26.175,0,0,0,2.073,8.936l.034.1a21.645,21.645,0,0,0,1.087,2.208c.068.1.1.2.17.306a15.787,15.787,0,0,0,1.122,1.767l.509.748.442.612.442.51.781.918a6.376,6.376,0,0,0,.815.849,31.135,31.135,0,0,0,7.407,5.5l.1.068,2.073,1.019.2.068c.475.2.951.374,1.427.544l1.257.476.714.2,1.325.34c.272.068.578.136.849.2l.17.034,1.189.2a32.146,32.146,0,0,0,5.368.476,30.742,30.742,0,0,0,14.542-3.67l.1-.068.1-.068.51-.306c.475-.272,1.053-.578,1.7-1.019l2.14-1.529.136-.136c.374-.305.748-.645,1.122-.951l.781-.679a5.166,5.166,0,0,0,.442-.408l.1-.1,1.223-1.291.883-.917c.17-.17.306-.34.476-.51l.068-.1,1.733-2.242a10.245,10.245,0,0,0,.849-1.257l.713-1.155.612-.951c.272-.442.476-.883.612-1.155.034-.068.068-.1.068-.17l.136-.238,1.155-2.446.747-2.039a15.734,15.734,0,0,0,.748-2.412l.136-.476c.034-.17.1-.34.136-.544a12.875,12.875,0,0,0,.476-2.209l.374-2.345v-.17c.068-.646.1-1.223.136-1.8,0-.238.068-.849.068-.849v-.238a8.336,8.336,0,0,0,.034-1.359l-.034-1.121-.034-1.189-.034-.85-.1-.815-.306-2.48-.034-.136c-.1-.645-.238-1.257-.374-1.8-.068-.238-.17-.781-.17-.781l-.034-.068a.431.431,0,0,1-.034-.2c-.068-.306-.17-.781-.34-1.325l-.34-1.087-.442-1.325c-.068-.2-.136-.374-.2-.578l-.068-.136-.306-.679-1.019-2.345-.068-.136c-.306-.612-.645-1.155-.917-1.665-.1-.2-.51-.884-.544-.985a12.285,12.285,0,0,0-.68-1.121l-.747-1.087-.747-1.053-.408-.544a5.538,5.538,0,0,0-.577-.714l-1.767-2.039c-.1-.136-.238-.238-.306-.34l-.645-.646-.917-.917-.068-.068c-.612-.544-1.257-1.121-1.937-1.7l-.068-.068-.1-.068c-.17-.136-.374-.306-.544-.442-.442-.374-.951-.781-1.529-1.189a47.468,47.468,0,0,0-9.412-5.4,48.178,48.178,0,0,0-10.567-3.058,47.372,47.372,0,0,0-7.543-.612c-1.155,0-2.344.034-3.5.136a46.626,46.626,0,0,0-21.032,6.9,44.808,44.808,0,0,0-8.664,6.965,54.01,54.01,0,0,0-4.145,4.655A49.9,49.9,0,0,1,190.847,124.1h.714c26.06.374,48.553,22.663,49.131,48.723a48.983,48.983,0,0,1-16.173,37.884,32.14,32.14,0,0,1-8.46,5.232l-.1.034a46.816,46.816,0,0,1-7.339,2.243A38.7,38.7,0,0,1,199.613,219.236Z" transform="translate(-138.998 -116.381)" fill="url(#linear-gradient-2)"/>
  </g>
</svg>
