<svg xmlns="http://www.w3.org/2000/svg" width="46" height="48.541" viewBox="0 0 46 48.541">
  <g id="SpinMoneyTitle" data-name="SpinMoneyTitle" transform="translate(-347 -342)">
    <text id="Select" transform="translate(347 387.541)" fill="#252525" font-size="13" font-family="Quicksand-Bold, Quicksand" font-weight="700"><tspan x="0" y="0">Loopys</tspan></text>
    <g id="Spin" transform="matrix(-0.259, -0.966, 0.966, -0.259, 362.264, 374.541)">
      <path id="Tracé_1" data-name="Tracé 1" d="M1.533,17.566A12.382,12.382,0,0,1,1.7,13.075a12.094,12.094,0,0,1,1.811-4.2A11.811,11.811,0,0,1,4.992,7.1,9.922,9.922,0,0,1,8.983,4.624a9.9,9.9,0,0,1,4.656-.361,9.774,9.774,0,0,1,4.254,1.795c.156.107.3.238.451.352s.287.254.426.385l.2.2.1.1.025.025c.066.074.033.033.049.057l.041.049.344.393a.525.525,0,0,1,.082.107l.09.123.18.246.172.246A2.545,2.545,0,0,1,20.2,8.6c.09.172.188.336.279.508l.23.525.057.131c.016.041.033.09.049.139l.09.27.09.271c.033.09.041.189.066.279.041.188.082.369.123.557.025.189.049.377.074.557l.016.139.008.139.008.279.008.279c0,.09-.008.189-.016.279-.016.189-.025.369-.041.557-.033.18-.057.369-.09.549s-.082.361-.123.533-.09.352-.156.525c-.057.156-.115.311-.172.459-.074.156-.148.32-.221.475-.057.1-.1.2-.156.3l-.139.229-.139.229a2.088,2.088,0,0,1-.148.221c-.107.139-.213.279-.328.426l-.082.107a.987.987,0,0,1-.09.1l-.18.2-.18.189-.09.1-.041.041-.025.016-.049.041c-.123.107-.238.213-.369.32-.147.107-.3.213-.451.32s-.3.18-.459.27a6.232,6.232,0,0,1-1.951.656,6.011,6.011,0,0,1-1.992-.016l-.246-.041c-.082-.016-.156-.041-.238-.057l-.238-.066-.115-.033-.115-.041c-.147-.057-.3-.115-.451-.172-.148-.074-.287-.139-.426-.213a6.332,6.332,0,0,1-1.492-1.115l-.041-.041c-.008,0-.041-.041-.033-.033l-.016-.016-.074-.082-.139-.164-.066-.082-.066-.1-.139-.2a3.349,3.349,0,0,1-.238-.393,2.6,2.6,0,0,1-.2-.4,4.821,4.821,0,0,1,.492-4.729l.229-.3c.082-.09.172-.18.254-.271l.066-.066.016-.016.025-.025.033-.025L10.532,11c.049-.041.082-.074.139-.115l.156-.107a3.8,3.8,0,0,1,1.279-.574,3.7,3.7,0,0,1,1.295-.09,4.066,4.066,0,0,1,1.164.32A3.545,3.545,0,0,1,16.13,11.8a2.889,2.889,0,0,1,.41,1.607,2.7,2.7,0,0,1-.09.607,3.12,3.12,0,1,1-4.746-3.27,3.134,3.134,0,0,0-.615.369l-.123.1a1.559,1.559,0,0,0-.123.115l-.123.123-.033.033c-.016.008,0,0-.008.008l-.016.016-.057.066c-.074.082-.148.172-.221.254s-.131.188-.2.279a4.314,4.314,0,0,0-.557,1.27,4.04,4.04,0,0,0-.107,1.443,4.216,4.216,0,0,0,.4,1.434,2.646,2.646,0,0,0,.18.336,2.091,2.091,0,0,0,.213.311l.115.147.057.074.074.074.148.156.074.074.016.016c.016.016-.008,0,.008,0l.041.033a5.4,5.4,0,0,0,1.344.91c.139.057.369.148.508.2.082.025.164.057.246.082l.1.033.1.025.2.041a1.506,1.506,0,0,0,.2.041l.2.025a5.27,5.27,0,0,0,1.68-.057,5.165,5.165,0,0,0,1.59-.615c.115-.082.254-.148.361-.229s.213-.164.328-.246l.352-.328.041-.041.025-.025h0l.074-.082.147-.172.148-.172c.025-.025.049-.057.074-.082l.066-.09c.082-.123.172-.246.254-.369a.891.891,0,0,0,.115-.189l.107-.2.107-.2c.049-.082.074-.172.115-.254l.172-.418c.041-.123.082-.254.123-.377a2.7,2.7,0,0,0,.115-.443,4.194,4.194,0,0,0,.082-.443c.016-.148.033-.3.057-.451.008-.156.008-.3.016-.459a2.148,2.148,0,0,0,0-.23l-.016-.229-.016-.23-.008-.115-.016-.115c-.025-.148-.049-.3-.074-.451s-.082-.3-.115-.443a2.276,2.276,0,0,0-.066-.221l-.082-.213-.082-.213c-.016-.033-.025-.074-.041-.106l-.049-.107-.2-.41c-.074-.131-.164-.262-.238-.393-.041-.066-.082-.131-.123-.188l-.131-.172-.131-.172-.066-.082a.908.908,0,0,0-.082-.09l-.361-.377L17.966,8.3c.008.008-.041-.049.008.008l-.025-.016-.09-.082-.172-.156c-.123-.1-.246-.2-.369-.3s-.254-.189-.385-.279a7.566,7.566,0,0,0-1.68-.861,8.22,8.22,0,0,0-1.836-.443,7.97,7.97,0,0,0-3.688.451,7.626,7.626,0,0,0-1.639.861l-.369.271c-.115.1-.246.2-.344.287s-.2.18-.336.311l-.189.189c-.016.008.025-.025,0,0l-.016.025-.041.041-.082.09A9.733,9.733,0,0,0,4.3,13.6a9.974,9.974,0,0,0,.025,3.524,9.416,9.416,0,0,0,1.2,3.156,9.7,9.7,0,0,0,.959,1.32c.082.09.164.18.246.279a.314.314,0,0,0,.074.074l.082.082.164.164.082.082.016.016-.008-.008.041.033.156.139c.1.09.2.18.3.271a12.325,12.325,0,0,0,2.615,1.7A12.023,12.023,0,0,0,13,25.369a12.392,12.392,0,0,0,5.008.008,11.041,11.041,0,0,0,4.467-2.131,13.341,13.341,0,0,0,4.344-10.172A13.629,13.629,0,0,0,13.639,0,13.367,13.367,0,0,0,2.869,21.64,12.219,12.219,0,0,1,1.533,17.566Z" fill="#b40707"/>
      <path id="Tracé_2" data-name="Tracé 2" d="M12.475,22.95a11.621,11.621,0,0,1-2.254-.23,10.842,10.842,0,0,1-2.434-.836,10.969,10.969,0,0,1-2.328-1.516c-.049-.041-.1-.082-.148-.131s-.082-.074-.131-.115l-.172-.156L4.7,19.655l-.246-.271a8.309,8.309,0,0,1-.811-1.123,8.2,8.2,0,0,1-1.033-2.7A8.425,8.425,0,0,1,3.688,9.582a7.824,7.824,0,0,1,.975-1.287l.123-.139.041-.041.131-.131c.057-.057.107-.1.172-.164a1.365,1.365,0,0,0,.115-.107c.033-.033.09-.074.139-.115l.123-.1.066-.049c.074-.057.156-.115.238-.172a6.714,6.714,0,0,1,1.361-.713,7.046,7.046,0,0,1,1.5-.369,6.147,6.147,0,0,1,.787-.049c.254,0,.516.016.77.041a6.3,6.3,0,0,1,1.516.369,6.527,6.527,0,0,1,1.385.713l.033.025.148.107c.049.033.1.074.139.107.1.074.2.156.295.238l.229.2.352.377h0a.111.111,0,0,1,.025.033l.172.229.106.139.008.016a.547.547,0,0,0,.057.09c.033.049.066.107.1.156s.066.1.1.156l.213.426.1.254.074.2v.008c.008.033.016.074.025.106.016.057.033.115.049.18s.033.115.049.18l.082.459.016.27.016.213v.3a1.433,1.433,0,0,1-.008.189l-.057.443V12.4c-.008.033-.016.066-.025.09a1.55,1.55,0,0,0-.041.188l-.016.082a1.237,1.237,0,0,1-.033.156l-.008.033-.115.352-.131.32a1.78,1.78,0,0,1-.082.172l-.008.008-.246.443-.3.418c-.008.008-.344.4-.344.4s-.1.09-.139.131c-.057.049-.107.107-.164.156l-.279.213c-.008.008-.066.041-.107.066s-.1.057-.139.09a3.82,3.82,0,0,1-1.1.426,4.47,4.47,0,0,0,2.557-3.131,4.966,4.966,0,0,0,.123-.852v-.041a4.091,4.091,0,0,0-.115-1.131,4.045,4.045,0,0,0-.492-1.2A4.825,4.825,0,0,0,12.1,7.893l-.016-.008a5.227,5.227,0,0,0-1.566-.426c-.172-.016-.361-.033-.541-.033a5.228,5.228,0,0,0-2.959.926l-.164.115a1.947,1.947,0,0,0-.2.164l-.164.139a1.1,1.1,0,0,0-.172.164l-.139.148c-.066.066-.131.139-.2.213l-.033.041L5.664,9.7l-.016.025a6.169,6.169,0,0,0-.885,1.787,5.93,5.93,0,0,0-.254,2.1,6.314,6.314,0,0,0,.5,2.156l.008.025a5.224,5.224,0,0,0,.262.533c.016.025.025.049.041.074a3.805,3.805,0,0,0,.271.426l.123.18.107.148.107.123.189.221a1.535,1.535,0,0,0,.2.2A7.51,7.51,0,0,0,8.1,19.024l.025.016.5.246.049.016c.115.049.229.09.344.131l.3.115.172.049.32.082.2.049.041.008.287.049a7.758,7.758,0,0,0,1.3.115,7.416,7.416,0,0,0,3.508-.885L15.171,19l.025-.016.123-.074c.115-.066.254-.139.41-.246l.516-.369.033-.033c.09-.074.18-.156.271-.229l.188-.164a1.244,1.244,0,0,0,.107-.1l.025-.025.3-.312.213-.221c.041-.041.074-.082.115-.123l.016-.025.418-.541a2.478,2.478,0,0,0,.2-.3l.172-.279.147-.229c.066-.107.115-.213.148-.279.008-.016.016-.025.016-.041l.033-.057.279-.59.18-.492a3.8,3.8,0,0,0,.18-.582l.033-.115c.008-.041.025-.082.033-.131a3.107,3.107,0,0,0,.115-.533l.09-.566v-.041c.016-.156.025-.295.033-.434,0-.057.016-.2.016-.2V11.59a2.01,2.01,0,0,0,.008-.328l-.008-.271L19.6,10.7l-.008-.2-.025-.2-.074-.6-.008-.033c-.025-.156-.057-.3-.09-.434-.016-.057-.041-.189-.041-.189l-.008-.016a.1.1,0,0,1-.008-.049c-.016-.074-.041-.189-.082-.32L19.171,8.4l-.107-.32c-.016-.049-.033-.09-.049-.139L19,7.909l-.074-.164-.246-.566-.016-.033c-.074-.148-.156-.279-.221-.4-.025-.049-.123-.213-.131-.238a2.969,2.969,0,0,0-.164-.27l-.18-.262-.18-.254-.1-.131a1.337,1.337,0,0,0-.139-.172l-.426-.492c-.025-.033-.057-.057-.074-.082l-.156-.156-.221-.221-.016-.016c-.148-.131-.3-.27-.467-.41l-.016-.016-.025-.016L16.016,3.9c-.107-.09-.229-.189-.369-.287a11.448,11.448,0,0,0-2.27-1.3,11.622,11.622,0,0,0-2.549-.738,11.427,11.427,0,0,0-1.82-.148c-.279,0-.566.008-.844.033A11.246,11.246,0,0,0,3.09,3.123,10.805,10.805,0,0,0,1,4.8,13.025,13.025,0,0,0,0,5.926,12.038,12.038,0,0,1,10.36,0h.172A12.277,12.277,0,0,1,22.384,11.754a11.816,11.816,0,0,1-3.9,9.139,7.753,7.753,0,0,1-2.041,1.262l-.025.008a11.289,11.289,0,0,1-1.77.541A9.335,9.335,0,0,1,12.475,22.95Z" transform="translate(2.147 1.862)" fill="#b40707"/>
    </g>
  </g>
</svg>
